<svg id="Layer_1" data-name="Layer 1" xmlns="http://www.w3.org/2000/svg" xmlns:xlink="http://www.w3.org/1999/xlink" viewBox="0 0 2017.02 610.68"><defs><style>.cls-1,.cls-23,.cls-4{fill:none;}.cls-2{fill:#b2b1b1;}.cls-3{font-size:12.87px;}.cls-15,.cls-17,.cls-3,.cls-5{font-family:Futura-Medium, Futura;}.cls-4{stroke:#b7b7b7;}.cls-23,.cls-4{stroke-miterlimit:10;}.cls-5{font-size:10px;}.cls-6{letter-spacing:-0.04em;}.cls-7{letter-spacing:-0.07em;}.cls-8{letter-spacing:-0.01em;}.cls-9{letter-spacing:-0.04em;}.cls-10{letter-spacing:-0.03em;}.cls-11{letter-spacing:-0.03em;}.cls-12{letter-spacing:-0.03em;}.cls-13{letter-spacing:0em;}.cls-14{letter-spacing:-0.08em;}.cls-15{font-size:18.38px;}.cls-16,.cls-17{font-size:11.03px;}.cls-16{letter-spacing:0em;}.cls-18{letter-spacing:-0.04em;}.cls-19{letter-spacing:-0.07em;}.cls-20{letter-spacing:-0.01em;}.cls-21{letter-spacing:-0.04em;}.cls-22{letter-spacing:-0.06em;}.cls-23{stroke:#fff;}.cls-24{fill:url(#New_Pattern_3);}.cls-25{fill:url(#New_Pattern_3-3);}</style><pattern id="New_Pattern_3" data-name="New Pattern 3" x="1.06" y="0.67" width="19.33" height="19.33" patternUnits="userSpaceOnUse" viewBox="0 0 19.33 19.33"><rect class="cls-1" width="19.33" height="19.33"/><circle class="cls-2" cx="9.67" cy="9.67" r="0.67"/></pattern><pattern id="New_Pattern_3-3" data-name="New Pattern 3" width="19.33" height="19.33" patternTransform="translate(18.38 0.67)" patternUnits="userSpaceOnUse" viewBox="0 0 19.33 19.33"><rect class="cls-1" width="19.33" height="19.33"/><circle class="cls-2" cx="9.67" cy="9.67" r="0.67"/></pattern></defs><title>planner-c</title><text class="cls-3" transform="translate(32.9 52.11) scale(0.94 1)">WEEK OF </text><line class="cls-4" x1="0.52" y1="63.55" x2="397.15" y2="63.55"/><text class="cls-5" transform="translate(32.9 78.26)">MON<tspan class="cls-6" x="26.99" y="0">D</tspan><tspan class="cls-7" x="33.88" y="0">A</tspan><tspan x="40.63" y="0">Y</tspan></text><line class="cls-4" x1="0.44" y1="138.66" x2="397.15" y2="138.66"/><text class="cls-5" transform="translate(32.9 153.37)">TUES<tspan class="cls-6" x="23.7" y="0">D</tspan><tspan class="cls-7" x="30.59" y="0">A</tspan><tspan x="37.33" y="0">Y</tspan></text><line class="cls-4" x1="1.21" y1="213.78" x2="397.15" y2="213.78"/><text class="cls-5" transform="translate(32.9 228.49)">WEDNES<tspan class="cls-6" x="43.45" y="0">D</tspan><tspan class="cls-7" x="50.34" y="0">A</tspan><tspan x="57.08" y="0">Y</tspan></text><line class="cls-4" x1="1.21" y1="288.89" x2="397.15" y2="288.89"/><text class="cls-5" transform="translate(32.9 303.6)">THURS<tspan class="cls-6" x="31.4" y="0">D</tspan><tspan class="cls-7" x="38.29" y="0">A</tspan><tspan x="45.03" y="0">Y</tspan></text><line class="cls-4" y1="364.01" x2="397.15" y2="364.01"/><text class="cls-5" transform="translate(32.9 378.72)">FRI<tspan class="cls-6" x="14.05" y="0">D</tspan><tspan class="cls-7" x="20.94" y="0">A</tspan><tspan x="27.69" y="0">Y</tspan></text><line class="cls-4" x1="0.77" y1="439.12" x2="397.15" y2="439.12"/><text class="cls-5" transform="translate(32.9 453.83)"><tspan class="cls-8">S</tspan><tspan class="cls-9" x="5.75" y="0">A</tspan><tspan x="12.74" y="0">TUR</tspan><tspan class="cls-6" x="30.97" y="0">D</tspan><tspan class="cls-7" x="37.86" y="0">A</tspan><tspan x="44.61" y="0">Y</tspan></text><line class="cls-4" x1="1.19" y1="514.24" x2="397.15" y2="514.24"/><text class="cls-5" transform="translate(32.9 528.95)">SUN<tspan class="cls-6" x="21.66" y="0">D</tspan><tspan class="cls-7" x="28.55" y="0">A</tspan><tspan x="35.3" y="0">Y</tspan></text><text class="cls-3" transform="translate(1652.78 52.11) scale(0.94 1)"><tspan class="cls-10">J</tspan><tspan x="4.94" y="0">AN</tspan><tspan class="cls-11" x="25.34" y="0">U</tspan><tspan x="34.43" y="0">A</tspan><tspan class="cls-12" x="43.95" y="0">R</tspan><tspan class="cls-13" x="51.27" y="0">Y 20</tspan><tspan class="cls-14" x="78.85" y="0">2</tspan><tspan x="85.7" y="0">1</tspan></text><line class="cls-4" x1="1620.4" y1="63.55" x2="2017.02" y2="63.55"/><text class="cls-15" transform="translate(1653.25 83.81)">4<tspan class="cls-16" x="11.34" y="0"> </tspan></text><text class="cls-17" transform="translate(1671.63 78.26)">MON<tspan class="cls-18" x="29.77" y="0">D</tspan><tspan class="cls-19" x="37.36" y="0">A</tspan><tspan x="44.8" y="0">Y</tspan></text><line class="cls-4" x1="1620.31" y1="145.3" x2="2017.02" y2="145.3"/><text class="cls-15" transform="translate(1653.25 165.56)">5</text><text class="cls-17" transform="translate(1671.63 160.01)">TUES<tspan class="cls-18" x="26.13" y="0">D</tspan><tspan class="cls-19" x="33.73" y="0">A</tspan><tspan x="41.17" y="0">Y</tspan></text><line class="cls-4" x1="1621.09" y1="227.05" x2="2017.02" y2="227.05"/><text class="cls-15" transform="translate(1653.25 247.31)">6<tspan class="cls-16" x="11.34" y="0"> </tspan></text><text class="cls-17" transform="translate(1671.63 241.76)">WEDNES<tspan class="cls-18" x="47.91" y="0">D</tspan><tspan class="cls-19" x="55.51" y="0">A</tspan><tspan x="62.95" y="0">Y</tspan></text><line class="cls-4" x1="1621.09" y1="308.8" x2="2017.02" y2="308.8"/><text class="cls-15" transform="translate(1653.25 329.06)">7</text><text class="cls-17" transform="translate(1671.63 323.51)">THURS<tspan class="cls-18" x="34.62" y="0">D</tspan><tspan class="cls-19" x="42.22" y="0">A</tspan><tspan x="49.66" y="0">Y</tspan></text><line class="cls-4" x1="1619.88" y1="390.55" x2="2017.02" y2="390.55"/><text class="cls-15" transform="translate(1653.25 410.81)">8<tspan class="cls-16" x="11.34" y="0"> </tspan></text><text class="cls-17" transform="translate(1671.63 405.25)">FRI<tspan class="cls-18" x="15.5" y="0">D</tspan><tspan class="cls-19" x="23.09" y="0">A</tspan><tspan x="30.54" y="0">Y</tspan></text><line class="cls-4" x1="1620.64" y1="472.3" x2="2017.02" y2="472.3"/><text class="cls-15" transform="translate(1653.25 492.56)">9<tspan class="cls-16" x="11.34" y="0"> </tspan></text><text class="cls-17" transform="translate(1671.63 487.01)"><tspan class="cls-20">S</tspan><tspan class="cls-21" x="6.34" y="0">A</tspan><tspan x="14.05" y="0">TUR</tspan><tspan class="cls-18" x="34.15" y="0">D</tspan><tspan class="cls-19" x="41.75" y="0">A</tspan><tspan x="49.19" y="0">Y</tspan></text><line class="cls-4" x1="1621.07" y1="554.05" x2="2017.02" y2="554.05"/><text class="cls-15" transform="translate(1653.25 574.31)"><tspan class="cls-22">1</tspan><tspan x="10.24" y="0">0</tspan><tspan class="cls-16" x="21.58" y="0"> </tspan></text><text class="cls-17" transform="translate(1680.82 568.75)">SUN<tspan class="cls-18" x="23.89" y="0">D</tspan><tspan class="cls-19" x="31.48" y="0">A</tspan><tspan x="38.92" y="0">Y</tspan></text><circle class="cls-23" cx="492.82" cy="79.61" r="0.97"/><circle class="cls-2" cx="461.06" cy="42" r="0.67"/><rect class="cls-24" x="397.06" width="392.84" height="610.68"/><text class="cls-3" transform="translate(842.89 52.11) scale(0.94 1)">WEEK OF </text><line class="cls-4" x1="810.5" y1="63.55" x2="1207.13" y2="63.55"/><text class="cls-5" transform="translate(842.89 78.26)">MON<tspan class="cls-6" x="26.99" y="0">D</tspan><tspan class="cls-7" x="33.88" y="0">A</tspan><tspan x="40.63" y="0">Y</tspan></text><line class="cls-4" x1="810.42" y1="138.66" x2="1207.13" y2="138.66"/><text class="cls-5" transform="translate(842.89 153.37)">TUES<tspan class="cls-6" x="23.7" y="0">D</tspan><tspan class="cls-7" x="30.59" y="0">A</tspan><tspan x="37.33" y="0">Y</tspan></text><line class="cls-4" x1="811.19" y1="213.78" x2="1207.13" y2="213.78"/><text class="cls-5" transform="translate(842.89 228.49)">WEDNES<tspan class="cls-6" x="43.45" y="0">D</tspan><tspan class="cls-7" x="50.34" y="0">A</tspan><tspan x="57.08" y="0">Y</tspan></text><line class="cls-4" x1="811.19" y1="288.89" x2="1207.13" y2="288.89"/><text class="cls-5" transform="translate(842.89 303.6)">THURS<tspan class="cls-6" x="31.4" y="0">D</tspan><tspan class="cls-7" x="38.29" y="0">A</tspan><tspan x="45.03" y="0">Y</tspan></text><line class="cls-4" x1="809.98" y1="364.01" x2="1207.13" y2="364.01"/><text class="cls-5" transform="translate(842.89 378.72)">FRI<tspan class="cls-6" x="14.05" y="0">D</tspan><tspan class="cls-7" x="20.94" y="0">A</tspan><tspan x="27.69" y="0">Y</tspan></text><line class="cls-4" x1="810.75" y1="439.12" x2="1207.13" y2="439.12"/><text class="cls-5" transform="translate(842.89 453.83)"><tspan class="cls-8">S</tspan><tspan class="cls-9" x="5.75" y="0">A</tspan><tspan x="12.74" y="0">TUR</tspan><tspan class="cls-6" x="30.97" y="0">D</tspan><tspan class="cls-7" x="37.86" y="0">A</tspan><tspan x="44.61" y="0">Y</tspan></text><line class="cls-4" x1="811.18" y1="514.24" x2="1207.13" y2="514.24"/><text class="cls-5" transform="translate(842.89 528.95)">SUN<tspan class="cls-6" x="21.66" y="0">D</tspan><tspan class="cls-7" x="28.55" y="0">A</tspan><tspan x="35.3" y="0">Y</tspan></text><circle class="cls-23" cx="1302.8" cy="79.61" r="0.97"/><circle class="cls-2" cx="1271.04" cy="42" r="0.67"/><rect class="cls-25" x="1207.04" width="392.84" height="610.68"/></svg>