<svg id="Layer_1" data-name="Layer 1" xmlns="http://www.w3.org/2000/svg" xmlns:xlink="http://www.w3.org/1999/xlink" viewBox="0 0 1599.89 610.68"><defs><style>.cls-1,.cls-10,.cls-4{fill:none;}.cls-2{fill:#b2b1b1;}.cls-3{font-size:12.87px;}.cls-3,.cls-5{font-family:Futura-Medium, Futura;}.cls-4{stroke:#b7b7b7;}.cls-10,.cls-4{stroke-miterlimit:10;}.cls-5{font-size:10px;}.cls-6{letter-spacing:-0.04em;}.cls-7{letter-spacing:-0.07em;}.cls-8{letter-spacing:-0.01em;}.cls-9{letter-spacing:-0.04em;}.cls-10{stroke:#fff;}.cls-11{fill:url(#New_Pattern_3);}.cls-12{fill:url(#New_Pattern_3-3);}</style><pattern id="New_Pattern_3" data-name="New Pattern 3" x="1.06" y="0.67" width="19.33" height="19.33" patternUnits="userSpaceOnUse" viewBox="0 0 19.33 19.33"><rect class="cls-1" width="19.33" height="19.33"/><circle class="cls-2" cx="9.67" cy="9.67" r="0.67"/></pattern><pattern id="New_Pattern_3-3" data-name="New Pattern 3" width="19.33" height="19.33" patternTransform="translate(18.38 0.67)" patternUnits="userSpaceOnUse" viewBox="0 0 19.33 19.33"><rect class="cls-1" width="19.33" height="19.33"/><circle class="cls-2" cx="9.67" cy="9.67" r="0.67"/></pattern></defs><title>planner-c</title><text class="cls-3" transform="translate(32.9 52.11) scale(0.94 1)">WEEK OF </text><line class="cls-4" x1="0.52" y1="63.55" x2="397.15" y2="63.55"/><text class="cls-5" transform="translate(32.9 78.26)">MON<tspan class="cls-6" x="26.99" y="0">D</tspan><tspan class="cls-7" x="33.88" y="0">A</tspan><tspan x="40.63" y="0">Y</tspan></text><line class="cls-4" x1="0.44" y1="138.66" x2="397.15" y2="138.66"/><text class="cls-5" transform="translate(32.9 153.37)">TUES<tspan class="cls-6" x="23.7" y="0">D</tspan><tspan class="cls-7" x="30.59" y="0">A</tspan><tspan x="37.33" y="0">Y</tspan></text><line class="cls-4" x1="1.21" y1="213.78" x2="397.15" y2="213.78"/><text class="cls-5" transform="translate(32.9 228.49)">WEDNES<tspan class="cls-6" x="43.45" y="0">D</tspan><tspan class="cls-7" x="50.34" y="0">A</tspan><tspan x="57.08" y="0">Y</tspan></text><line class="cls-4" x1="1.21" y1="288.89" x2="397.15" y2="288.89"/><text class="cls-5" transform="translate(32.9 303.6)">THURS<tspan class="cls-6" x="31.4" y="0">D</tspan><tspan class="cls-7" x="38.29" y="0">A</tspan><tspan x="45.03" y="0">Y</tspan></text><line class="cls-4" y1="364.01" x2="397.15" y2="364.01"/><text class="cls-5" transform="translate(32.9 378.72)">FRI<tspan class="cls-6" x="14.05" y="0">D</tspan><tspan class="cls-7" x="20.94" y="0">A</tspan><tspan x="27.69" y="0">Y</tspan></text><line class="cls-4" x1="0.77" y1="439.12" x2="397.15" y2="439.12"/><text class="cls-5" transform="translate(32.9 453.83)"><tspan class="cls-8">S</tspan><tspan class="cls-9" x="5.75" y="0">A</tspan><tspan x="12.74" y="0">TUR</tspan><tspan class="cls-6" x="30.97" y="0">D</tspan><tspan class="cls-7" x="37.86" y="0">A</tspan><tspan x="44.61" y="0">Y</tspan></text><line class="cls-4" x1="1.19" y1="514.24" x2="397.15" y2="514.24"/><text class="cls-5" transform="translate(32.9 528.95)">SUN<tspan class="cls-6" x="21.66" y="0">D</tspan><tspan class="cls-7" x="28.55" y="0">A</tspan><tspan x="35.3" y="0">Y</tspan></text><circle class="cls-10" cx="492.82" cy="79.61" r="0.97"/><circle class="cls-2" cx="461.06" cy="42" r="0.67"/><rect class="cls-11" x="397.06" width="392.84" height="610.68"/><text class="cls-3" transform="translate(842.89 52.11) scale(0.94 1)">WEEK OF </text><line class="cls-4" x1="810.5" y1="63.55" x2="1207.13" y2="63.55"/><text class="cls-5" transform="translate(842.89 78.26)">MON<tspan class="cls-6" x="26.99" y="0">D</tspan><tspan class="cls-7" x="33.88" y="0">A</tspan><tspan x="40.63" y="0">Y</tspan></text><line class="cls-4" x1="810.42" y1="138.66" x2="1207.13" y2="138.66"/><text class="cls-5" transform="translate(842.89 153.37)">TUES<tspan class="cls-6" x="23.7" y="0">D</tspan><tspan class="cls-7" x="30.59" y="0">A</tspan><tspan x="37.33" y="0">Y</tspan></text><line class="cls-4" x1="811.19" y1="213.78" x2="1207.13" y2="213.78"/><text class="cls-5" transform="translate(842.89 228.49)">WEDNES<tspan class="cls-6" x="43.45" y="0">D</tspan><tspan class="cls-7" x="50.34" y="0">A</tspan><tspan x="57.08" y="0">Y</tspan></text><line class="cls-4" x1="811.19" y1="288.89" x2="1207.13" y2="288.89"/><text class="cls-5" transform="translate(842.89 303.6)">THURS<tspan class="cls-6" x="31.4" y="0">D</tspan><tspan class="cls-7" x="38.29" y="0">A</tspan><tspan x="45.03" y="0">Y</tspan></text><line class="cls-4" x1="809.98" y1="364.01" x2="1207.13" y2="364.01"/><text class="cls-5" transform="translate(842.89 378.72)">FRI<tspan class="cls-6" x="14.05" y="0">D</tspan><tspan class="cls-7" x="20.94" y="0">A</tspan><tspan x="27.69" y="0">Y</tspan></text><line class="cls-4" x1="810.75" y1="439.12" x2="1207.13" y2="439.12"/><text class="cls-5" transform="translate(842.89 453.83)"><tspan class="cls-8">S</tspan><tspan class="cls-9" x="5.75" y="0">A</tspan><tspan x="12.74" y="0">TUR</tspan><tspan class="cls-6" x="30.97" y="0">D</tspan><tspan class="cls-7" x="37.86" y="0">A</tspan><tspan x="44.61" y="0">Y</tspan></text><line class="cls-4" x1="811.18" y1="514.24" x2="1207.13" y2="514.24"/><text class="cls-5" transform="translate(842.89 528.95)">SUN<tspan class="cls-6" x="21.66" y="0">D</tspan><tspan class="cls-7" x="28.55" y="0">A</tspan><tspan x="35.3" y="0">Y</tspan></text><circle class="cls-10" cx="1302.8" cy="79.61" r="0.97"/><circle class="cls-2" cx="1271.04" cy="42" r="0.67"/><rect class="cls-12" x="1207.04" width="392.84" height="610.68"/></svg>